<?xml version="1.0" encoding="UTF-8"?>
<svg id="Ebene_1" xmlns="http://www.w3.org/2000/svg" version="1.1" viewBox="0 0 1230.2 697">
  <!-- Generator: Adobe Illustrator 30.6.0, SVG Export Plug-In . SVG Version: 2.1.4 Build 109)  -->
  <defs>
    <style>
      .st0 {
        font-family: HelveticaLTPro-Roman, 'Helvetica LT Pro';
        font-size: 14px;
      }

      .st0, .st1 {
        isolation: isolate;
      }

      .st2, .st3, .st4, .st5 {
        fill: none;
      }

      .st2, .st3, .st4, .st5, .st6 {
        stroke: #000;
      }

      .st2, .st5 {
        stroke-miterlimit: 4;
        stroke-width: 1px;
      }

      .st4, .st5 {
        stroke-dasharray: 5 2;
      }
    </style>
  </defs>
  <g id="graph0">
    <g id="node1">
      <circle class="st3" cx="62.1" cy="78.1" r="57.6"/>
      <g class="st1">
        <g class="st1">
          <text class="st0" transform="translate(43.8 65.5)"><tspan x="0" y="0">Setup</tspan></text>
        </g>
      </g>
      <g class="st1">
        <g class="st1">
          <text class="st0" transform="translate(45.8 82.3)"><tspan x="0" y="0">Work</tspan></text>
        </g>
      </g>
      <g class="st1">
        <g class="st1">
          <text class="st0" transform="translate(47.3 99.1)"><tspan x="0" y="0">Area</tspan></text>
        </g>
      </g>
    </g>
    <g id="node2">
      <circle class="st3" cx="62.1" cy="215" r="57.6"/>
      <circle class="st3" cx="62.1" cy="215" r="61.6"/>
      <g class="st1">
        <g class="st1">
          <text class="st0" transform="translate(43.8 202.4)"><tspan x="0" y="0">Install</tspan></text>
        </g>
      </g>
      <g class="st1">
        <g class="st1">
          <text class="st0" transform="translate(28.9 219.2)"><tspan x="0" y="0">Temporary</tspan></text>
        </g>
      </g>
      <g class="st1">
        <g class="st1">
          <text class="st0" transform="translate(33.8 236)"><tspan x="0" y="0">Supports</tspan></text>
        </g>
      </g>
    </g>
    <g id="edge1">
      <path class="st3" d="M62.1,136v6.1"/>
      <polygon class="st6" points="65.6 142 62.1 152 58.6 142 65.6 142"/>
    </g>
    <g id="node3">
      <circle class="st4" cx="221.2" cy="326" r="57.6"/>
      <circle class="st4" cx="221.2" cy="326" r="61.6"/>
      <g class="st1">
        <g class="st1">
          <text class="st0" transform="translate(195.4 305)"><tspan x="0" y="0">Remove</tspan></text>
        </g>
      </g>
      <g class="st1">
        <g class="st1">
          <text class="st0" transform="translate(200.6 321.8)"><tspan x="0" y="0">Rotted</tspan></text>
        </g>
      </g>
      <g class="st1">
        <g class="st1">
          <text class="st0" transform="translate(203.7 338.6)"><tspan x="0" y="0">Outer</tspan></text>
        </g>
      </g>
      <g class="st1">
        <g class="st1">
          <text class="st0" transform="translate(196.4 355.4)"><tspan x="0" y="0">Support</tspan></text>
        </g>
      </g>
    </g>
    <g id="edge2">
      <path class="st3" d="M112.8,250.1c15.5,10.9,32.7,23.1,48.7,34.4"/>
      <polygon class="st6" points="163.1 282.1 169.3 290.7 159.1 287.8 163.1 282.1"/>
    </g>
    <g id="node5">
      <circle class="st4" cx="380.4" cy="62.1" r="57.6"/>
      <circle class="st4" cx="380.4" cy="62.1" r="61.6"/>
      <g class="st1">
        <g class="st1">
          <text class="st0" transform="translate(354.6 41.1)"><tspan x="0" y="0">Remove</tspan></text>
        </g>
      </g>
      <g class="st1">
        <g class="st1">
          <text class="st0" transform="translate(359.8 57.9)"><tspan x="0" y="0">Rotted</tspan></text>
        </g>
      </g>
      <g class="st1">
        <g class="st1">
          <text class="st0" transform="translate(361.3 74.7)"><tspan x="0" y="0">Rafter</tspan></text>
        </g>
      </g>
      <g class="st1">
        <g class="st1">
          <text class="st0" transform="translate(364.4 91.5)"><tspan x="0" y="0">Base</tspan></text>
        </g>
      </g>
    </g>
    <g id="edge4">
      <path class="st3" d="M102.5,168.3c16.2-16.7,36.1-34.3,57.1-46.2,45.9-26.1,103.7-41.3,148.5-49.8"/>
      <polygon class="st6" points="307.4 68.6 317.9 70.2 308.7 75.5 307.4 68.6"/>
    </g>
    <g id="node4">
      <circle class="st3" cx="221.2" cy="189" r="57.6"/>
      <g class="st1">
        <g class="st1">
          <text class="st0" transform="translate(196.3 176.4)"><tspan x="0" y="0">Prepare</tspan></text>
        </g>
      </g>
      <g class="st1">
        <g class="st1">
          <text class="st0" transform="translate(204.9 193.2)"><tspan x="0" y="0">Scarf</tspan></text>
        </g>
      </g>
      <g class="st1">
        <g class="st1">
          <text class="st0" transform="translate(206.4 210)"><tspan x="0" y="0">Joint</tspan></text>
        </g>
      </g>
    </g>
    <g id="edge3">
      <path class="st3" d="M221.2,263.9v-6.1"/>
      <polygon class="st6" points="217.7 258 221.2 248 224.7 258 217.7 258"/>
    </g>
    <g id="node6">
      <circle class="st3" cx="380.4" cy="203" r="57.6"/>
      <circle class="st3" cx="380.4" cy="203" r="61.6"/>
      <g class="st1">
        <g class="st1">
          <text class="st0" transform="translate(360.9 190.4)"><tspan x="0" y="0">Select</tspan></text>
        </g>
      </g>
      <g class="st1">
        <g class="st1">
          <text class="st0" transform="translate(339.1 207.2)"><tspan x="0" y="0">Replacement</tspan></text>
        </g>
      </g>
      <g class="st1">
        <g class="st1">
          <text class="st0" transform="translate(358.6 224)"><tspan x="0" y="0">Timber</tspan></text>
        </g>
      </g>
    </g>
    <g id="edge5">
      <path class="st3" d="M278.9,194.1c9.4.8,19.2,1.7,28.9,2.6"/>
      <polygon class="st6" points="308.1 193.3 317.7 197.6 307.5 200.2 308.1 193.3"/>
    </g>
    <g id="edge6">
      <path class="st3" d="M380.4,124.1v6.1"/>
      <polygon class="st6" points="383.9 130.1 380.4 140.1 376.9 130.1 383.9 130.1"/>
    </g>
    <g id="node7">
      <circle class="st5" cx="539.45" cy="97.13" r="57.6" transform="translate(89.32 409.9) rotate(-45)"/>
      <circle class="st5" cx="539.45" cy="97.13" r="61.6" transform="translate(89.32 409.9) rotate(-45)"/>
      <g class="st1">
        <g class="st1">
          <text class="st0" transform="translate(528.6 84.5)"><tspan x="0" y="0">Cut</tspan></text>
        </g>
      </g>
      <g class="st1">
        <g class="st1">
          <text class="st0" transform="translate(523.2 101.3)"><tspan x="0" y="0">Scarf</tspan></text>
        </g>
      </g>
      <g class="st1">
        <g class="st1">
          <text class="st0" transform="translate(498.3 118.1)"><tspan x="0" y="0">Replacement</tspan></text>
        </g>
      </g>
    </g>
    <g id="edge7">
      <path class="st3" d="M432,168.9c14.9-10.1,31.4-21.2,46.8-31.6"/>
      <polygon class="st6" points="476.5 134 486.8 131.3 480.4 139.8 476.5 134"/>
    </g>
    <g id="node8">
      <circle class="st5" cx="539.46" cy="272.99" r="57.6" transform="translate(-35.03 461.41) rotate(-45)"/>
      <circle class="st5" cx="539.53" cy="273.01" r="61.6" transform="translate(-35.03 461.47) rotate(-45)"/>
      <g class="st1">
        <g class="st1">
          <text class="st0" transform="translate(528.6 260.4)"><tspan x="0" y="0">Cut</tspan></text>
        </g>
      </g>
      <g class="st1">
        <g class="st1">
          <text class="st0" transform="translate(507.6 277.2)"><tspan x="0" y="0">Dutchman</tspan></text>
        </g>
      </g>
      <g class="st1">
        <g class="st1">
          <text class="st0" transform="translate(521.9 294)"><tspan x="0" y="0">Patch</tspan></text>
        </g>
      </g>
    </g>
    <g id="edge8">
      <path class="st3" d="M437.2,227.9c11.6,5.1,23.9,10.6,35.8,15.9"/>
      <polygon class="st6" points="474.1 241 481.9 248.2 471.3 247.4 474.1 241"/>
    </g>
    <g id="node9">
      <circle class="st3" cx="694.7" cy="88.1" r="57.6"/>
      <g class="st1">
        <g class="st1">
          <text class="st0" transform="translate(683.6 67.1)"><tspan x="0" y="0">Dry</tspan></text>
        </g>
      </g>
      <g class="st1">
        <g class="st1">
          <text class="st0" transform="translate(686.9 83.9)"><tspan x="0" y="0">Fit</tspan></text>
        </g>
      </g>
      <g class="st1">
        <g class="st1">
          <text class="st0" transform="translate(678.3 100.7)"><tspan x="0" y="0">Scarf</tspan></text>
        </g>
      </g>
      <g class="st1">
        <g class="st1">
          <text class="st0" transform="translate(679.9 117.5)"><tspan x="0" y="0">Joint</tspan></text>
        </g>
      </g>
    </g>
    <g id="edge9">
      <path class="st3" d="M601.5,93.5c8-.5,16.3-1,24.4-1.4"/>
      <polygon class="st6" points="625.7 88.5 635.9 91.4 626.1 95.5 625.7 88.5"/>
    </g>
    <g id="node10">
      <circle class="st3" cx="694.7" cy="343" r="57.6"/>
      <g class="st1">
        <g class="st1">
          <text class="st0" transform="translate(683.6 322)"><tspan x="0" y="0">Dry</tspan></text>
        </g>
      </g>
      <g class="st1">
        <g class="st1">
          <text class="st0" transform="translate(686.9 338.8)"><tspan x="0" y="0">Fit</tspan></text>
        </g>
      </g>
      <g class="st1">
        <g class="st1">
          <text class="st0" transform="translate(662.8 355.6)"><tspan x="0" y="0">Dutchman</tspan></text>
        </g>
      </g>
      <g class="st1">
        <g class="st1">
          <text class="st0" transform="translate(677.1 372.4)"><tspan x="0" y="0">Patch</tspan></text>
        </g>
      </g>
    </g>
    <g id="edge10">
      <path class="st3" d="M595.8,298.3c11.7,5.4,24.2,11,36.1,16.5"/>
      <polygon class="st6" points="633.1 312 640.8 319.3 630.2 318.3 633.1 312"/>
    </g>
    <g id="node11">
      <circle class="st3" cx="849.8" cy="79.1" r="57.6"/>
      <circle class="st3" cx="849.8" cy="79.1" r="61.6"/>
      <g class="st1">
        <g class="st1">
          <text class="st0" transform="translate(832.3 66.5)"><tspan x="0" y="0">Apply</tspan></text>
        </g>
      </g>
      <g class="st1">
        <g class="st1">
          <text class="st0" transform="translate(833.5 83.3)"><tspan x="0" y="0">Scarf</tspan></text>
        </g>
      </g>
      <g class="st1">
        <g class="st1">
          <text class="st0" transform="translate(821.2 100.1)"><tspan x="0" y="0">Adhesive</tspan></text>
        </g>
      </g>
    </g>
    <g id="edge11">
      <path class="st3" d="M752.3,84.7c8.1-.5,16.6-1,24.9-1.5"/>
      <polygon class="st6" points="776.9 79.7 787.1 82.6 777.3 86.7 776.9 79.7"/>
    </g>
    <g id="node13">
      <circle class="st3" cx="849.8" cy="361" r="57.6"/>
      <circle class="st3" cx="849.8" cy="361" r="61.6"/>
      <g class="st1">
        <g class="st1">
          <text class="st0" transform="translate(832.3 348.4)"><tspan x="0" y="0">Apply</tspan></text>
        </g>
      </g>
      <g class="st1">
        <g class="st1">
          <text class="st0" transform="translate(817.9 365.2)"><tspan x="0" y="0">Dutchman</tspan></text>
        </g>
      </g>
      <g class="st1">
        <g class="st1">
          <text class="st0" transform="translate(821.2 382)"><tspan x="0" y="0">Adhesive</tspan></text>
        </g>
      </g>
    </g>
    <g id="edge13">
      <path class="st3" d="M752.3,349.7c8.3,1,16.9,2,25.4,3"/>
      <polygon class="st6" points="777.8 349.3 787.4 353.9 777 356.2 777.8 349.3"/>
    </g>
    <g id="node12">
      <circle class="st3" cx="849.8" cy="220" r="57.6"/>
      <circle class="st3" cx="849.8" cy="220" r="61.6"/>
      <g class="st1">
        <g class="st1">
          <text class="st0" transform="translate(831.6 207.4)"><tspan x="0" y="0">Install</tspan></text>
        </g>
      </g>
      <g class="st1">
        <g class="st1">
          <text class="st0" transform="translate(833.5 224.2)"><tspan x="0" y="0">Scarf</tspan></text>
        </g>
      </g>
      <g class="st1">
        <g class="st1">
          <text class="st0" transform="translate(835.1 241)"><tspan x="0" y="0">Joint</tspan></text>
        </g>
      </g>
    </g>
    <g id="edge12">
      <path class="st3" d="M849.8,141.1v6.1"/>
      <polygon class="st6" points="853.3 147.1 849.8 157.1 846.3 147.1 853.3 147.1"/>
    </g>
    <g id="node15">
      <circle class="st2" cx="1009.04" cy="361.05" r="57.6" transform="translate(40.24 819.25) rotate(-45)"/>
      <g class="st1">
        <g class="st1">
          <text class="st0" transform="translate(992.4 348.4)"><tspan x="0" y="0">Allow</tspan></text>
        </g>
      </g>
      <g class="st1">
        <g class="st1">
          <text class="st0" transform="translate(980.4 365.2)"><tspan x="0" y="0">Adhesive</tspan></text>
        </g>
      </g>
      <g class="st1">
        <g class="st1">
          <text class="st0" transform="translate(993.8 382)"><tspan x="0" y="0">Cure</tspan></text>
        </g>
      </g>
    </g>
    <g id="edge15">
      <path class="st3" d="M896.3,260.8c19.1,17.2,41.4,37.2,61.1,54.8"/>
      <polygon class="st6" points="959.2 312.5 964.3 321.7 954.6 317.7 959.2 312.5"/>
    </g>
    <g id="node14">
      <circle class="st3" cx="849.8" cy="502" r="57.6"/>
      <circle class="st3" cx="849.8" cy="502" r="61.6"/>
      <g class="st1">
        <g class="st1">
          <text class="st0" transform="translate(831.6 489.4)"><tspan x="0" y="0">Install</tspan></text>
        </g>
      </g>
      <g class="st1">
        <g class="st1">
          <text class="st0" transform="translate(817.9 506.2)"><tspan x="0" y="0">Dutchman</tspan></text>
        </g>
      </g>
      <g class="st1">
        <g class="st1">
          <text class="st0" transform="translate(832.2 523)"><tspan x="0" y="0">Patch</tspan></text>
        </g>
      </g>
    </g>
    <g id="edge14">
      <path class="st3" d="M849.8,423v6.1"/>
      <polygon class="st6" points="853.3 429 849.8 439 846.3 429 853.3 429"/>
    </g>
    <g id="edge16">
      <path class="st3" d="M896.3,461.2c19.1-17.2,41.4-37.2,61.1-54.8"/>
      <polygon class="st6" points="954.6 404.3 964.3 400.3 959.2 409.5 954.6 404.3"/>
    </g>
    <g id="node16">
      <circle class="st4" cx="1009" cy="498" r="57.6"/>
      <circle class="st4" cx="1009" cy="498" r="61.6"/>
      <g class="st1">
        <g class="st1">
          <text class="st0" transform="translate(983.2 485.4)"><tspan x="0" y="0">Remove</tspan></text>
        </g>
      </g>
      <g class="st1">
        <g class="st1">
          <text class="st0" transform="translate(975.9 502.2)"><tspan x="0" y="0">Temporary</tspan></text>
        </g>
      </g>
      <g class="st1">
        <g class="st1">
          <text class="st0" transform="translate(980.7 519)"><tspan x="0" y="0">Supports</tspan></text>
        </g>
      </g>
    </g>
    <g id="edge17">
      <path class="st3" d="M1009,418.9v6.1"/>
      <polygon class="st6" points="1012.5 424.9 1009 434.9 1005.5 424.9 1012.5 424.9"/>
    </g>
    <g id="node17">
      <circle class="st3" cx="1168.1" cy="498" r="57.6"/>
      <g class="st1">
        <g class="st1">
          <text class="st0" transform="translate(1150.3 485.4)"><tspan x="0" y="0">Blend</tspan></text>
        </g>
      </g>
      <g class="st1">
        <g class="st1">
          <text class="st0" transform="translate(1154.3 502.2)"><tspan x="0" y="0">New</tspan></text>
        </g>
      </g>
      <g class="st1">
        <g class="st1">
          <text class="st0" transform="translate(1150.1 519)"><tspan x="0" y="0">Wood</tspan></text>
        </g>
      </g>
    </g>
    <g id="edge18">
      <path class="st3" d="M1070.8,498h28.4"/>
      <polygon class="st6" points="1099.2 494.5 1109.2 498 1099.2 501.5 1099.2 494.5"/>
    </g>
    <g id="node18">
      <circle class="st3" cx="1168.1" cy="634.9" r="57.6"/>
      <circle class="st3" cx="1168.1" cy="634.9" r="61.6"/>
      <g class="st1">
        <text class="st0" transform="translate(1150.6 622.3)"><tspan x="0" y="0">Apply</tspan></text>
      </g>
      <g class="st1">
        <text class="st0" transform="translate(1137.2 639.1)"><tspan x="0" y="0">Protective</tspan></text>
      </g>
      <g class="st1">
        <text class="st0" transform="translate(1149.5 655.9)"><tspan x="0" y="0">Finish</tspan></text>
      </g>
    </g>
    <g id="edge19">
      <path class="st3" d="M1168.1,555.9v6.1"/>
      <polygon class="st6" points="1171.6 561.9 1168.1 571.9 1164.6 561.9 1171.6 561.9"/>
    </g>
  </g>
</svg>